<?xml version="1.0" standalone="no"?>
<!DOCTYPE svg PUBLIC "-//W3C//DTD SVG 20010904//EN"
 "http://www.w3.org/TR/2001/REC-SVG-20010904/DTD/svg10.dtd">
<svg version="1.0" xmlns="http://www.w3.org/2000/svg"
 width="260.000000pt" height="260.000000pt" viewBox="0 0 260.000000 260.000000"
 preserveAspectRatio="xMidYMid meet">
<metadata>
Created by potrace 1.11, written by Peter Selinger 2001-2013
</metadata>
<g transform="translate(0.000000,260.000000) scale(0.100000,-0.100000)"
fill="#000000" stroke="none">
<path d="M1217 2443 c-2 -1 -33 -5 -68 -8 -292 -22 -606 -201 -795 -452 -350
-465 -308 -1107 101 -1519 278 -280 634 -392 1043 -328 123 19 345 111 419
174 7 5 15 10 19 10 20 0 212 178 264 245 31 40 88 132 113 180 36 70 77 165
71 165 -3 0 0 8 5 18 6 11 13 31 16 45 3 15 7 39 11 54 3 15 7 29 9 32 6 11
19 166 18 236 0 83 -10 168 -29 250 -8 33 -16 67 -19 76 -6 29 -68 173 -93
219 -71 128 -190 268 -300 352 -31 23 -59 45 -62 48 -5 6 -54 35 -115 70 -33
18 -178 79 -204 86 -81 20 -166 36 -216 41 -69 6 -184 10 -188 6z m-209 -621
c29 -14 57 -31 62 -37 8 -9 26 -9 77 1 66 12 283 12 313 0 9 -4 50 11 95 34
97 49 141 52 156 13 12 -30 15 -150 5 -160 -3 -4 5 -20 18 -37 56 -75 69 -114
71 -226 5 -241 -100 -352 -360 -380 -5 0 -3 -6 6 -13 46 -35 53 -64 55 -221
l3 -151 31 -25 c36 -30 38 -40 6 -40 -101 0 -118 27 -121 185 -2 115 -7 145
-23 145 -4 0 -6 -62 -6 -138 1 -120 4 -143 23 -180 12 -23 18 -43 14 -43 -40
-6 -88 21 -109 62 -8 16 -14 31 -14 34 4 112 -2 287 -10 279 -6 -6 -11 -61
-12 -128 -1 -143 -9 -191 -37 -217 -28 -26 -65 -39 -81 -29 -12 7 -11 13 5 30
15 17 20 39 22 112 1 50 4 97 7 105 3 7 1 13 -4 13 -5 0 -5 13 0 30 5 17 5 30
0 30 -4 0 -6 10 -3 23 4 21 4 21 -10 4 -12 -14 -15 -48 -16 -139 0 -115 -1
-123 -24 -146 -16 -16 -40 -26 -71 -29 -54 -6 -58 3 -16 40 29 26 30 31 30
110 l0 83 -67 0 c-96 1 -148 32 -184 111 -19 41 -72 103 -90 103 -5 0 -9 6 -9
14 0 21 35 26 67 10 27 -14 103 -91 103 -105 0 -13 76 -37 110 -35 53 4 77 15
83 37 3 11 5 20 4 22 -1 1 8 12 18 25 25 29 25 35 0 37 -11 2 -32 5 -47 9 -16
3 -40 8 -54 11 -44 9 -118 51 -153 87 -63 63 -90 137 -95 256 -4 91 4 128 40
189 26 42 29 58 30 133 1 47 6 98 13 113 10 27 14 28 54 22 23 -4 66 -19 95
-33z"/>
</g>
</svg>
