<?xml version="1.0" standalone="no"?>
<!DOCTYPE svg PUBLIC "-//W3C//DTD SVG 20010904//EN"
 "http://www.w3.org/TR/2001/REC-SVG-20010904/DTD/svg10.dtd">
<svg version="1.0" xmlns="http://www.w3.org/2000/svg"
 width="256.000000pt" height="256.000000pt" viewBox="0 0 256.000000 256.000000"
 preserveAspectRatio="xMidYMid meet">
<metadata>
Created by potrace 1.11, written by Peter Selinger 2001-2013
</metadata>
<g transform="translate(0.000000,256.000000) scale(0.100000,-0.100000)"
fill="#000000" stroke="none">
<path d="M1178 2455 c-2 -1 -28 -5 -58 -9 -380 -45 -744 -303 -917 -651 -59
-118 -103 -257 -119 -375 -10 -72 -10 -259 -1 -335 54 -425 371 -820 775 -965
51 -19 67 -21 87 -12 32 15 36 36 33 167 -3 92 -6 109 -18 107 -44 -10 -159
-10 -199 0 -99 25 -152 70 -201 174 -28 59 -66 103 -144 171 -15 12 -26 27
-26 32 0 17 57 23 102 11 43 -12 83 -48 181 -163 21 -25 55 -53 75 -63 44 -21
140 -23 194 -5 33 11 39 18 52 65 9 29 25 65 37 80 12 15 20 29 18 31 -2 2
-23 6 -46 10 -328 48 -491 239 -491 575 0 115 21 190 78 279 38 58 40 65 30
99 -20 75 -3 243 29 275 25 25 181 -25 289 -94 41 -26 44 -26 95 -14 138 36
362 36 497 1 49 -13 50 -13 116 27 82 49 180 84 231 83 35 -1 39 -4 52 -41 19
-58 25 -163 12 -224 -11 -53 -11 -53 29 -113 22 -33 49 -92 61 -131 19 -62 21
-87 15 -182 -10 -185 -58 -308 -153 -395 -85 -78 -254 -146 -372 -149 l-24 -1
19 -22 c53 -61 58 -88 64 -336 5 -218 6 -235 25 -248 29 -21 96 -4 216 56 52
27 80 44 189 117 14 9 70 62 125 117 135 136 214 258 278 431 54 147 71 246
71 420 0 201 -30 333 -113 510 -172 365 -508 615 -916 681 -32 6 -272 13 -277
9z"/>
<path d="M500 735 c0 -8 7 -15 15 -15 8 0 15 4 15 9 0 5 -7 11 -15 15 -9 3
-15 0 -15 -9z"/>
<path d="M550 687 c0 -8 7 -18 16 -21 11 -4 14 -1 12 11 -4 21 -28 30 -28 10z"/>
<path d="M598 634 c-11 -10 3 -34 19 -34 8 0 13 7 11 17 -3 18 -20 27 -30 17z"/>
<path d="M650 555 c0 -18 24 -30 39 -21 16 10 1 36 -20 36 -10 0 -19 -7 -19
-15z"/>
<path d="M735 509 c-8 -12 14 -31 30 -26 6 2 10 10 10 18 0 17 -31 24 -40 8z"/>
<path d="M938 513 c-10 -3 -18 -9 -18 -14 0 -15 30 -23 43 -10 14 14 -2 29
-25 24z"/>
<path d="M830 484 c0 -10 7 -14 22 -12 32 5 35 28 4 28 -17 0 -26 -5 -26 -16z"/>
</g>
</svg>
