<?xml version="1.0" standalone="no"?>
<!DOCTYPE svg PUBLIC "-//W3C//DTD SVG 20010904//EN"
 "http://www.w3.org/TR/2001/REC-SVG-20010904/DTD/svg10.dtd">
<svg version="1.0" xmlns="http://www.w3.org/2000/svg"
 width="800.000000pt" height="800.000000pt" viewBox="0 0 800.000000 800.000000"
 preserveAspectRatio="xMidYMid meet">
<metadata>
Created by potrace 1.11, written by Peter Selinger 2001-2013
</metadata>
<g transform="translate(0.000000,800.000000) scale(0.100000,-0.100000)"
fill="#000000" stroke="none">
<path d="M3576 6530 c-93 -28 -119 -147 -46 -212 24 -22 40 -28 78 -28 27 0
57 7 68 14 18 14 29 5 172 -137 l152 -152 0 -187 0 -188 -80 0 -79 0 -3 113
-3 112 -25 0 -25 0 -3 -117 -3 -118 -74 0 -75 0 -2 192 c-3 180 -4 193 -22
196 -10 2 -22 -2 -27 -10 -5 -7 -9 -97 -9 -200 0 -212 10 -188 -85 -203 -103
-17 -125 -43 -146 -174 l-12 -71 -223 0 c-185 0 -224 2 -224 14 0 8 -16 28
-35 45 -80 70 -205 15 -205 -92 0 -73 77 -135 151 -120 33 6 89 56 89 79 0 12
36 14 220 14 l220 0 0 -60 0 -60 -184 0 c-151 0 -186 -3 -196 -15 -10 -12 -10
-18 0 -30 10 -12 45 -15 191 -15 l179 0 0 -65 0 -65 -198 0 -197 0 -160 -160
c-158 -158 -160 -160 -203 -160 -115 0 -175 -121 -101 -204 76 -87 212 -36
212 80 0 23 -7 53 -16 67 -16 24 -15 25 144 176 l159 153 179 -8 179 -7 7 -68
c4 -37 4 -73 0 -78 -4 -7 -49 -11 -116 -11 -92 0 -111 -3 -116 -16 -12 -32 24
-44 133 -44 l101 0 7 -46 c3 -26 6 -57 6 -70 l0 -24 -183 0 c-192 0 -228 -7
-214 -44 6 -14 30 -16 206 -16 l199 0 10 -60 c20 -112 49 -143 159 -171 l68
-17 3 -225 c2 -217 2 -226 -17 -232 -11 -3 -32 -20 -46 -36 -19 -24 -25 -42
-25 -81 0 -44 4 -54 34 -84 30 -30 40 -34 86 -34 46 0 56 4 86 34 30 30 34 40
34 84 0 39 -6 57 -25 81 -14 16 -35 33 -45 36 -19 6 -20 17 -20 226 l0 219 60
0 60 0 2 -192 3 -193 25 0 25 0 3 188 2 187 60 0 60 0 0 -87 c0 -49 3 -139 7
-201 l6 -113 159 -163 c148 -154 158 -166 158 -202 0 -115 131 -172 210 -92
54 54 49 132 -12 183 -35 30 -101 34 -137 9 -23 -17 -25 -15 -176 137 l-153
154 5 188 6 187 73 0 74 0 0 -102 c0 -110 7 -132 36 -126 17 3 19 15 22 113 1
60 6 113 10 116 4 4 37 10 75 14 l67 7 0 -189 c0 -103 4 -194 9 -201 5 -8 17
-12 27 -10 18 3 19 17 22 205 l2 203 28 6 c68 15 128 39 148 59 15 15 28 50
40 104 l17 81 228 0 c217 0 228 -1 234 -20 3 -10 20 -31 36 -45 24 -19 42 -25
81 -25 44 0 54 4 84 34 30 30 34 40 34 86 0 46 -4 56 -34 86 -30 30 -40 34
-84 34 -39 0 -57 -6 -81 -25 -16 -14 -33 -35 -36 -45 -6 -19 -17 -20 -231 -20
l-224 0 0 23 c0 12 3 39 6 60 l7 37 181 0 c99 0 187 4 194 9 8 5 12 17 10 27
-3 18 -16 19 -197 22 l-194 2 7 38 c3 20 6 49 6 65 l0 27 198 0 199 0 166 160
c156 152 167 160 205 160 112 0 169 132 90 210 -54 54 -132 49 -183 -12 -29
-34 -33 -97 -10 -138 14 -24 11 -28 -138 -177 l-152 -153 -187 0 -188 0 0 80
0 80 99 0 c116 0 131 4 131 36 0 24 0 24 -114 24 l-113 0 -7 46 c-3 26 -6 60
-6 75 l0 29 183 0 c100 0 188 4 195 9 8 5 12 17 10 27 -3 18 -17 19 -199 22
l-196 2 -7 46 c-18 135 -43 165 -161 189 l-85 18 0 224 c0 177 3 223 13 223 7
0 27 14 45 31 56 55 52 132 -10 184 -54 45 -151 27 -183 -35 -32 -63 -7 -143
56 -176 l32 -16 -6 -151 c-4 -82 -7 -179 -7 -214 l0 -64 -57 3 -58 3 -5 190
c-5 182 -6 190 -25 190 -18 0 -21 -9 -26 -90 -4 -49 -7 -134 -8 -187 l-1 -98
-60 0 -60 0 0 198 0 197 -165 165 -165 165 0 47 c0 67 -35 107 -110 123 -8 2
-28 -1 -44 -5z m83 -76 c12 -15 21 -35 21 -46 0 -25 -44 -68 -70 -68 -28 0
-70 43 -70 71 0 13 10 33 22 46 29 31 71 30 97 -3z m764 -205 c29 -16 37 -28
37 -61 0 -35 -32 -68 -65 -68 -39 0 -79 44 -71 78 7 30 40 62 63 62 8 0 24 -5
36 -11z m20 -694 c118 -18 132 -25 146 -67 62 -190 45 -1000 -23 -1103 -18
-27 -48 -37 -191 -61 -142 -25 -639 -25 -772 -1 -129 24 -170 41 -182 80 -45
137 -62 690 -30 967 15 128 27 156 76 169 40 11 187 29 288 35 135 8 593 -4
688 -19z m-1648 -167 c46 -21 46 -99 -1 -120 -34 -16 -75 0 -92 34 -11 23 -10
32 2 57 22 42 46 50 91 29z m2715 -8 c27 -27 25 -66 -6 -96 -29 -30 -67 -27
-96 8 -23 27 -23 49 3 82 25 32 70 35 99 6z m-2917 -792 c36 -43 6 -108 -50
-108 -34 0 -46 8 -62 38 -17 33 -6 69 27 86 32 18 60 12 85 -16z m2692 7 c14
-13 25 -33 25 -45 0 -26 -43 -70 -68 -70 -31 0 -72 38 -72 68 0 33 36 72 67
72 13 0 35 -11 48 -25z m-1626 -861 c12 -15 21 -35 21 -46 0 -25 -44 -68 -70
-68 -11 0 -32 11 -45 25 -14 13 -25 34 -25 45 0 29 44 70 74 70 15 0 33 -11
45 -26z m775 -215 c65 -51 -1 -148 -74 -109 -62 33 -35 125 36 129 6 1 23 -8
38 -20z"/>
<path d="M3943 5325 c-13 -9 -27 -33 -33 -55 -13 -49 -39 -59 -79 -29 -35 26
-65 21 -109 -16 -40 -34 -48 -69 -24 -109 26 -44 14 -72 -36 -85 -42 -12 -62
-41 -62 -91 0 -50 20 -79 61 -90 53 -15 65 -39 39 -83 -26 -45 -19 -77 26
-117 41 -35 65 -38 105 -9 42 30 61 22 76 -32 15 -52 40 -69 103 -69 50 0 77
26 86 80 4 22 11 43 16 46 5 3 27 -6 48 -20 51 -34 72 -33 115 5 48 43 53 69
21 123 -32 55 -32 66 -2 66 37 0 86 20 96 40 6 10 10 39 10 64 0 58 -22 82
-84 91 -25 4 -46 11 -46 17 0 5 11 26 25 46 35 51 32 77 -14 123 -45 46 -65
48 -115 14 -38 -26 -66 -24 -66 5 0 35 -22 78 -46 89 -35 16 -86 14 -111 -4z
m87 -92 c0 -48 5 -55 62 -83 l46 -23 38 31 c20 17 42 28 50 25 26 -10 24 -35
-6 -69 -36 -41 -35 -40 -11 -98 19 -43 21 -45 68 -48 44 -3 48 -5 51 -30 3
-27 2 -28 -46 -28 -56 0 -65 -7 -82 -67 -12 -41 -12 -43 19 -78 35 -40 37 -48
17 -64 -17 -14 -41 -5 -70 28 -23 25 -29 26 -83 4 -44 -19 -53 -34 -53 -91 0
-30 -2 -33 -27 -30 -25 3 -29 8 -33 47 -5 43 -6 44 -62 64 l-56 20 -32 -27
c-31 -25 -34 -26 -51 -10 -19 17 -18 18 7 51 l25 34 -19 42 c-11 23 -22 50
-25 59 -4 11 -19 18 -44 20 -33 3 -38 6 -38 28 0 22 5 26 39 30 32 4 41 10 46
30 4 14 15 40 24 58 16 32 16 33 -9 66 -24 32 -25 33 -6 50 17 16 20 15 50
-10 31 -26 33 -26 69 -11 20 9 46 17 57 19 13 2 21 12 23 28 6 60 12 70 37 70
22 0 25 -4 25 -37z"/>
<path d="M3934 5066 c-134 -60 -90 -256 58 -256 96 0 159 114 108 197 -36 60
-107 86 -166 59z m96 -76 c42 -42 14 -110 -46 -110 -61 0 -86 71 -38 109 33
26 58 27 84 1z"/>
<path d="M2566 3294 c-14 -38 -7 -44 49 -44 46 0 55 -3 55 -18 0 -10 -18 -101
-40 -202 -22 -101 -40 -190 -40 -198 0 -10 19 -12 82 -10 l82 3 41 195 c23
108 44 203 48 213 5 13 19 17 66 17 55 0 59 2 63 25 3 13 3 27 0 30 -3 3 -94
5 -203 5 -170 0 -198 -2 -203 -16z"/>
<path d="M3085 3298 c-8 -26 -95 -449 -95 -463 0 -13 26 -15 160 -15 131 0
160 3 160 14 0 8 3 21 6 30 5 14 -5 16 -73 16 l-80 0 17 78 16 77 66 3 c58 3
67 5 72 25 3 12 6 25 6 30 0 4 -30 7 -66 7 -57 0 -65 2 -60 18 2 9 10 43 17
75 l12 57 77 0 c71 0 78 2 83 22 3 12 4 25 1 30 -9 14 -314 10 -319 -4z"/>
<path d="M3644 3298 c-54 -18 -125 -80 -153 -133 -21 -40 -27 -67 -29 -137 -4
-76 -1 -92 19 -127 33 -59 92 -86 189 -85 74 0 173 24 186 46 7 11 33 116 34
136 0 8 -20 12 -70 12 -68 0 -70 -1 -76 -27 -20 -82 -67 -130 -101 -102 -38
33 9 302 63 356 42 42 59 28 62 -50 l3 -67 68 0 68 0 12 57 c16 82 15 87 -26
108 -45 22 -200 30 -249 13z"/>
<path d="M4077 3288 c-12 -45 -97 -451 -97 -460 0 -5 37 -8 82 -6 l82 3 21
100 21 100 47 3 c45 3 47 2 43 -20 -30 -132 -36 -161 -36 -174 0 -12 15 -14
82 -12 l81 3 48 220 c26 121 48 230 48 243 1 21 -3 22 -79 22 -74 0 -80 -1
-85 -22 -3 -13 -14 -61 -23 -108 -18 -84 -19 -85 -51 -88 -59 -6 -60 -2 -40
90 30 134 33 128 -60 128 -73 0 -79 -2 -84 -22z"/>
<path d="M4715 3296 c-69 -22 -82 -33 -94 -80 -16 -67 -17 -66 52 -66 l62 0
23 49 c36 80 82 82 82 3 0 -57 -19 -88 -60 -97 -17 -4 -31 -13 -31 -21 -1 -8
-2 -19 -3 -24 -1 -6 10 -16 24 -23 50 -25 30 -149 -26 -163 -36 -9 -44 3 -44
62 l0 54 -64 0 -63 0 -11 -56 c-11 -53 -10 -57 11 -75 37 -31 88 -44 167 -42
123 2 206 45 230 119 15 45 -9 101 -50 117 -35 13 -38 23 -10 32 11 3 33 20
50 36 55 55 36 145 -36 175 -41 17 -155 17 -209 0z"/>
<path d="M5177 3303 c-5 -8 -57 -236 -57 -248 0 -3 22 -5 48 -5 36 0 54 5 67
20 24 26 50 25 69 -2 19 -26 20 -67 5 -123 -28 -103 -99 -100 -99 4 l0 41 -55
0 c-61 0 -65 -4 -79 -82 -6 -36 -5 -38 41 -65 42 -24 58 -28 123 -27 115 1
180 36 222 118 16 30 19 51 15 87 -12 96 -66 135 -177 127 l-66 -5 4 28 4 29
113 0 112 0 7 38 c12 77 23 72 -143 72 -83 0 -152 -3 -154 -7z"/>
</g>
</svg>
