<?xml version="1.0" standalone="no"?>
<!DOCTYPE svg PUBLIC "-//W3C//DTD SVG 20010904//EN"
 "http://www.w3.org/TR/2001/REC-SVG-20010904/DTD/svg10.dtd">
<svg version="1.0" xmlns="http://www.w3.org/2000/svg"
 width="260.000000pt" height="260.000000pt" viewBox="0 0 260.000000 260.000000"
 preserveAspectRatio="xMidYMid meet">
<metadata>
Created by potrace 1.11, written by Peter Selinger 2001-2013
</metadata>
<g transform="translate(0.000000,260.000000) scale(0.100000,-0.100000)"
fill="#000000" stroke="none">
<path d="M1105 2551 c-67 -12 -166 -38 -231 -62 -29 -11 -55 -19 -58 -17 -2 2
-13 -6 -25 -16 -12 -11 -21 -15 -21 -11 0 4 -8 1 -18 -8 -10 -10 -22 -14 -25
-10 -4 3 -7 2 -7 -4 0 -6 -14 -16 -32 -24 -53 -22 -189 -128 -267 -208 -77
-79 -171 -204 -171 -228 0 -7 -4 -13 -8 -13 -5 0 -17 -19 -28 -42 -10 -24 -23
-46 -29 -50 -5 -4 -7 -8 -2 -8 4 0 0 -11 -9 -25 -9 -14 -13 -25 -9 -25 4 0 2
-7 -5 -15 -7 -8 -10 -15 -6 -15 4 0 -1 -11 -10 -25 -9 -14 -13 -25 -9 -25 4 0
3 -6 -3 -12 -5 -7 -13 -26 -15 -43 -3 -16 -9 -41 -12 -55 -4 -14 -8 -38 -10
-55 -2 -16 -4 -30 -5 -30 -1 0 -5 -25 -8 -55 -11 -102 -6 -252 13 -350 4 -19
7 -41 7 -47 1 -7 5 -13 9 -13 5 0 6 -7 3 -15 -4 -8 -1 -21 5 -29 6 -7 8 -16 5
-19 -3 -3 -2 -12 2 -19 5 -7 9 -15 10 -18 0 -3 4 -13 7 -22 4 -10 10 -26 14
-35 3 -10 7 -20 7 -23 1 -3 19 -39 40 -80 55 -107 116 -201 149 -232 16 -16
26 -28 22 -28 -8 0 73 -79 141 -139 88 -76 308 -199 407 -226 4 -2 10 -4 15
-5 4 -1 12 -3 17 -5 6 -1 13 -3 18 -5 4 -1 16 -4 27 -5 11 -1 21 -3 23 -5 5
-4 44 -12 72 -13 17 -1 35 -5 40 -8 6 -4 32 -6 58 -5 26 1 50 -1 52 -4 4 -6
130 -6 130 0 0 1 23 4 50 6 55 4 120 11 120 14 0 2 33 10 60 15 11 2 22 4 25
6 3 1 10 3 15 4 6 2 13 4 18 5 4 1 10 3 15 5 39 11 246 108 250 118 2 4 10 7
18 7 8 0 14 5 14 10 0 6 7 10 15 10 8 0 15 5 15 10 0 6 6 10 13 10 26 0 267
233 267 259 0 5 7 11 15 15 8 3 15 12 15 21 0 8 5 15 10 15 6 0 10 6 10 13 0
7 8 22 18 33 9 11 26 37 37 59 11 22 24 43 28 46 5 3 8 10 8 15 -2 19 11 44
21 44 6 0 9 3 5 6 -3 4 1 23 9 43 9 20 17 43 19 51 2 8 4 16 5 18 2 1 3 10 5
20 1 9 5 24 8 32 4 8 8 24 10 35 2 11 7 28 12 38 4 9 5 26 2 37 -3 11 -2 20 2
20 20 0 17 311 -4 400 -4 14 -9 41 -12 60 -3 19 -11 46 -18 60 -7 14 -10 31
-8 38 3 6 0 12 -6 12 -6 0 -10 3 -10 8 1 4 0 10 -1 15 -1 4 -3 10 -4 15 -1 4
-7 17 -14 30 -7 12 -11 22 -8 22 12 0 -91 182 -138 245 -99 132 -237 258 -346
316 -25 13 -47 27 -50 31 -5 6 -157 78 -163 77 -1 0 -15 5 -32 11 -99 38 -194
52 -365 55 -96 2 -197 0 -225 -4z m330 -65 c22 -2 40 -5 40 -6 0 -1 16 -4 35
-6 19 -2 43 -5 53 -6 9 -1 17 -6 17 -10 0 -4 9 -5 20 -3 11 2 20 0 20 -4 0 -4
6 -8 13 -8 29 -1 181 -68 258 -113 45 -28 83 -50 85 -50 1 0 19 -15 39 -32 46
-41 194 -188 189 -188 -2 0 14 -24 37 -52 70 -92 177 -330 182 -405 0 -7 3
-13 6 -13 3 0 7 -12 8 -27 0 -16 4 -53 8 -83 9 -78 12 -251 3 -256 -4 -2 -6
-17 -6 -32 1 -40 -49 -232 -81 -309 -49 -118 -99 -193 -215 -326 -62 -71 -252
-221 -267 -211 -5 3 -9 1 -9 -4 0 -31 -264 -124 -405 -143 -108 -14 -334 -6
-420 15 -143 35 -315 104 -315 127 0 5 -4 8 -8 5 -10 -6 -108 63 -190 132 -71
61 -174 185 -232 281 -54 90 -120 276 -136 381 -3 19 -8 46 -10 60 -6 34 -6
248 0 286 33 202 93 362 182 487 19 26 34 52 34 57 0 6 7 13 15 16 8 4 15 10
15 14 0 4 41 48 91 96 116 113 128 124 135 124 3 0 24 13 47 29 59 40 172 95
237 115 30 10 62 20 70 23 26 10 45 14 63 14 9 0 17 3 17 7 0 4 12 8 28 9 15
2 44 4 64 6 20 1 39 5 42 8 5 5 177 2 241 -5z"/>
<path d="M1365 2441 c-6 -11 20 -33 28 -24 4 3 7 10 7 14 0 11 -29 19 -35 10z"/>
<path d="M1462 2423 c2 -9 9 -18 16 -21 18 -6 15 25 -4 32 -11 4 -14 1 -12
-11z"/>
<path d="M1550 2401 c0 -11 26 -22 34 -14 12 12 5 23 -14 23 -11 0 -20 -4 -20
-9z"/>
<path d="M1130 2365 c-114 -18 -330 -97 -351 -128 -3 -5 -10 -8 -14 -7 -4 1
-18 -7 -31 -19 -13 -11 -24 -18 -24 -15 0 3 -34 -23 -76 -58 -74 -61 -204
-210 -204 -234 0 -7 -7 -15 -16 -18 -9 -4 -14 -9 -11 -12 3 -4 -1 -13 -9 -21
-8 -8 -12 -19 -9 -24 4 -5 1 -9 -5 -9 -6 0 -8 -4 -5 -10 3 -5 1 -10 -5 -10 -6
0 -9 -4 -6 -9 3 -5 -1 -14 -9 -21 -8 -7 -15 -17 -15 -22 0 -6 -7 -24 -15 -41
-27 -60 -56 -202 -62 -307 -9 -176 19 -334 88 -488 17 -37 29 -67 28 -67 -2 0
6 -10 16 -23 11 -12 18 -24 15 -25 -4 -2 20 -33 48 -62 6 -8 12 -17 12 -21 0
-4 7 -14 14 -23 91 -100 133 -141 143 -141 7 0 17 -9 23 -20 6 -11 15 -20 21
-20 6 0 17 -6 24 -12 26 -24 40 -33 78 -53 20 -11 37 -23 37 -27 0 -5 3 -7 8
-6 4 1 17 -3 30 -10 12 -7 22 -10 22 -7 0 3 10 -1 23 -9 98 -64 371 -102 548
-77 90 13 188 38 203 51 5 5 15 6 22 3 8 -3 14 -1 14 5 0 9 22 19 65 28 10 3
22 9 25 13 3 5 12 11 19 13 8 2 23 11 33 20 10 10 25 18 33 18 8 0 15 5 15 10
0 6 7 10 15 10 8 0 15 5 15 10 0 6 8 14 18 17 9 4 22 12 28 17 6 6 27 24 47
40 39 31 44 45 26 63 -9 9 -34 -7 -97 -58 -105 -84 -277 -172 -354 -181 -10
-1 -18 -5 -18 -8 0 -4 -6 -7 -12 -8 -47 -4 -74 -9 -83 -13 -6 -4 -31 -5 -57
-5 -27 1 -48 -1 -48 -5 0 -9 -110 -9 -125 0 -5 3 -23 6 -40 6 -16 0 -34 3 -40
6 -5 4 -19 5 -30 3 -10 -1 -24 1 -30 5 -5 5 -18 7 -27 6 -10 -2 -18 1 -18 6 0
4 -7 6 -15 3 -8 -4 -15 -2 -15 3 0 5 -6 10 -12 10 -37 1 -179 70 -262 125 -78
53 -200 176 -253 253 -50 74 -108 186 -105 203 2 6 -2 12 -9 12 -6 0 -9 7 -6
15 4 8 2 17 -2 19 -8 5 -25 60 -37 121 -17 84 -22 231 -11 320 8 65 22 135 27
143 2 1 4 7 5 12 1 6 3 11 4 13 2 1 5 13 7 27 2 13 11 35 20 47 8 13 12 28 9
33 -3 6 -2 10 3 10 5 0 16 15 23 33 19 45 108 178 136 202 12 11 23 25 23 30
0 11 44 55 55 55 3 0 20 12 35 28 45 42 58 52 70 52 6 0 13 7 16 15 4 8 12 15
20 15 8 0 14 5 14 11 0 5 5 7 10 4 6 -3 10 -1 10 6 0 7 3 9 7 6 3 -4 14 -1 22
7 21 20 154 72 232 92 34 9 101 19 148 22 79 6 86 9 89 30 3 20 -1 22 -40 21
-24 -1 -81 -7 -128 -14z"/>
<path d="M1640 2370 c0 -5 9 -10 20 -10 11 0 20 5 20 10 0 6 -9 10 -20 10 -11
0 -20 -4 -20 -10z"/>
<path d="M1736 2341 c-3 -5 1 -12 10 -15 20 -8 29 -1 19 13 -8 13 -22 14 -29
2z"/>
<path d="M1822 2298 c3 -7 13 -15 24 -17 16 -3 17 -1 5 13 -16 19 -34 21 -29
4z"/>
<path d="M727 2283 c-4 -3 -7 -13 -7 -21 0 -12 3 -12 15 -2 8 7 15 16 15 21 0
11 -14 12 -23 2z"/>
<path d="M1377 2272 c-9 -15 9 -37 33 -39 28 -3 63 -9 100 -18 14 -3 32 -8 40
-10 8 -2 16 -4 18 -5 1 -2 5 -3 10 -4 4 -1 13 -5 20 -9 6 -5 17 -5 22 -2 6 3
10 0 10 -7 0 -8 5 -7 16 4 9 9 13 21 9 28 -10 15 -68 38 -115 43 -8 1 -18 5
-21 9 -7 11 -137 20 -142 10z"/>
<path d="M1905 2250 c-3 -5 4 -14 15 -20 16 -8 20 -8 20 4 0 16 -27 29 -35 16z"/>
<path d="M640 2230 c-11 -7 -12 -12 -4 -20 8 -8 14 -7 23 4 14 17 1 28 -19 16z"/>
<path d="M1245 2191 c-4 -3 -21 -6 -38 -6 -18 -1 -59 -7 -92 -14 -33 -8 -66
-14 -72 -14 -7 0 -13 -4 -13 -9 0 -4 -7 -8 -15 -8 -8 0 -23 -4 -33 -9 -9 -5
-35 -17 -57 -27 -175 -75 -360 -280 -422 -467 -64 -196 -72 -326 -28 -503 27
-108 115 -289 147 -302 4 -2 8 -8 8 -14 0 -14 158 -165 171 -164 3 1 14 -8 24
-18 28 -27 168 -93 250 -116 38 -11 105 -23 147 -26 l78 -7 0 27 c0 25 -2 26
-52 26 -58 0 -214 34 -235 52 -7 6 -13 7 -13 4 0 -4 -25 7 -56 24 -210 115
-347 276 -414 485 -34 107 -40 312 -11 424 22 89 52 161 93 226 14 22 25 43
24 46 -1 3 14 18 32 33 17 15 32 32 32 37 0 5 16 25 35 45 19 19 35 32 35 27
0 -4 10 3 23 17 12 14 31 30 42 37 186 113 268 137 465 138 125 0 156 -3 220
-23 85 -27 195 -78 224 -104 11 -10 23 -18 27 -18 5 0 19 -10 32 -22 13 -13
42 -39 65 -58 22 -19 39 -37 36 -41 -2 -4 8 -17 22 -28 15 -12 23 -21 19 -21
-5 0 1 -8 12 -17 25 -23 97 -171 120 -248 25 -84 26 -332 0 -425 -25 -94 -89
-216 -153 -294 -50 -61 -55 -70 -41 -83 13 -13 20 -11 57 26 23 23 39 41 36
41 -4 0 2 10 14 22 11 12 20 25 20 29 0 4 6 14 14 21 36 37 116 260 118 330 1
16 4 30 7 32 10 7 1 210 -11 246 -3 8 -15 49 -27 90 -28 95 -84 210 -121 250
-15 16 -25 30 -22 30 4 0 -23 29 -58 65 -68 69 -167 140 -235 170 -22 9 -52
23 -67 31 -16 9 -28 12 -28 8 0 -3 -7 0 -17 7 -9 8 -18 13 -20 11 -3 -3 -19 0
-83 14 -56 13 -207 24 -215 15z"/>
<path d="M1980 2192 c0 -10 21 -32 32 -32 16 0 8 19 -12 30 -11 6 -20 7 -20 2z"/>
<path d="M571 2166 c-8 -9 -11 -19 -7 -23 9 -9 29 13 24 27 -2 8 -8 7 -17 -4z"/>
<path d="M2056 2116 c7 -19 38 -22 32 -3 -3 6 -12 13 -21 15 -12 2 -15 -1 -11
-12z"/>
<path d="M497 2103 c-12 -11 -8 -23 8 -23 8 0 15 7 15 15 0 16 -12 20 -23 8z"/>
<path d="M1201 2091 c-33 -6 -55 -39 -28 -42 39 -4 203 4 210 11 5 4 1 15 -8
24 -17 17 -102 20 -174 7z"/>
<path d="M1835 2090 c-8 -13 192 -213 205 -205 23 14 -4 59 -82 134 -75 73
-110 93 -123 71z"/>
<path d="M1520 2041 c0 -10 7 -24 15 -31 8 -7 15 -9 15 -5 0 5 9 0 21 -11 12
-10 23 -18 25 -17 9 4 44 -10 44 -18 0 -5 3 -8 8 -7 4 1 18 -4 31 -11 19 -11
26 -11 37 1 20 21 -2 42 -87 83 -83 40 -109 44 -109 16z"/>
<path d="M2122 2049 c2 -7 10 -15 17 -17 8 -3 12 1 9 9 -2 7 -10 15 -17 17 -8
3 -12 -1 -9 -9z"/>
<path d="M432 2033 c-15 -6 -6 -23 14 -23 8 0 14 7 14 15 0 15 -6 17 -28 8z"/>
<path d="M927 2002 c-85 -49 -115 -83 -81 -96 9 -3 34 7 60 25 24 16 44 27 44
23 0 -4 8 0 18 9 10 10 21 15 24 12 8 -9 50 43 43 54 -11 19 -38 12 -108 -27z"/>
<path d="M2185 1980 c-7 -12 2 -30 16 -30 12 0 12 27 0 35 -5 3 -12 1 -16 -5z"/>
<path d="M375 1950 c-8 -13 4 -32 16 -25 12 8 12 35 0 35 -6 0 -13 -4 -16 -10z"/>
<path d="M2236 1885 c4 -8 12 -15 20 -15 8 0 11 6 8 15 -4 8 -12 15 -20 15 -8
0 -11 -6 -8 -15z"/>
<path d="M326 1864 c-8 -22 1 -31 16 -16 9 9 9 15 1 23 -7 7 -12 5 -17 -7z"/>
<path d="M1821 1856 c-9 -11 1 -30 49 -95 70 -93 74 -96 90 -76 9 11 8 21 -7
47 -10 18 -25 38 -33 45 -8 7 -12 13 -8 13 6 0 -69 80 -76 80 -2 0 -9 -6 -15
-14z"/>
<path d="M699 1799 c-13 -17 -28 -36 -34 -42 -24 -28 -56 -99 -51 -112 9 -25
36 -17 54 16 9 18 32 54 50 82 32 50 38 77 16 84 -6 2 -22 -10 -35 -28z"/>
<path d="M2280 1806 c0 -17 14 -29 23 -20 8 8 -3 34 -14 34 -5 0 -9 -6 -9 -14z"/>
<path d="M287 1783 c-12 -11 -8 -23 8 -23 8 0 15 7 15 15 0 16 -12 20 -23 8z"/>
<path d="M2317 1726 c-3 -8 1 -20 9 -26 11 -10 14 -9 14 8 0 25 -16 37 -23 18z"/>
<path d="M2134 1695 c-4 -17 -1 -32 10 -44 9 -10 14 -20 11 -22 -2 -3 0 -21 6
-40 16 -54 21 -73 21 -89 0 -62 51 -92 54 -32 1 18 -2 32 -5 32 -4 0 -7 12 -8
28 0 15 -4 38 -7 52 -4 14 -8 30 -10 35 -7 31 -46 105 -55 105 -6 0 -13 -11
-17 -25z"/>
<path d="M250 1686 c0 -8 5 -18 10 -21 6 -3 10 3 10 14 0 12 -4 21 -10 21 -5
0 -10 -6 -10 -14z"/>
<path d="M2347 1634 c-8 -8 3 -34 14 -34 11 0 12 27 0 34 -4 3 -11 3 -14 0z"/>
<path d="M226 1594 c-8 -22 1 -31 16 -16 9 9 9 15 1 23 -7 7 -12 5 -17 -7z"/>
<path d="M1985 1582 c-12 -8 -13 -22 -2 -39 5 -7 5 -17 2 -23 -3 -5 -2 -10 3
-10 5 0 9 -6 9 -12 3 -45 16 -114 23 -122 5 -5 16 -6 26 -2 14 5 16 15 11 59
-9 73 -35 157 -50 157 -7 0 -17 -4 -22 -8z"/>
<path d="M2367 1544 c-8 -8 3 -34 14 -34 11 0 12 27 0 34 -4 3 -11 3 -14 0z"/>
<path d="M210 1495 c0 -8 5 -15 10 -15 6 0 10 7 10 15 0 8 -4 15 -10 15 -5 0
-10 -7 -10 -15z"/>
<path d="M555 1493 c-4 -10 -9 -60 -12 -110 -5 -79 -4 -93 10 -99 30 -11 42
17 41 91 -1 39 2 75 6 80 11 14 -7 55 -24 55 -7 0 -17 -8 -21 -17z"/>
<path d="M2384 1439 c-3 -6 -1 -16 5 -22 8 -8 11 -5 11 11 0 24 -5 28 -16 11z"/>
<path d="M200 1395 c0 -15 4 -24 10 -20 6 3 10 12 10 20 0 8 -4 17 -10 20 -6
4 -10 -5 -10 -20z"/>
<path d="M1287 1354 c-11 -11 -9 -102 3 -109 6 -4 10 8 10 30 0 29 3 36 18 33
11 -2 19 -16 23 -38 l6 -35 2 43 c0 23 -3 43 -9 44 -5 0 -16 1 -22 2 -7 1 -15
9 -18 19 -3 10 -8 15 -13 11z"/>
<path d="M1370 1341 c0 -5 10 -9 23 -8 12 0 31 -4 42 -8 18 -8 19 -7 6 8 -14
18 -71 24 -71 8z"/>
<path d="M1468 1344 c-13 -12 5 -43 29 -49 28 -7 26 -28 -3 -33 -31 -6 -41
-22 -13 -22 35 0 51 14 47 41 -2 16 -11 25 -26 27 -29 4 -24 24 9 33 22 6 22
7 -7 8 -17 1 -33 -2 -36 -5z"/>
<path d="M2380 1330 c0 -11 5 -20 10 -20 6 0 10 9 10 20 0 11 -4 20 -10 20 -5
0 -10 -9 -10 -20z"/>
<path d="M1068 1328 c-9 -27 7 -83 25 -86 9 -2 17 1 17 7 0 6 -4 11 -10 11
-15 0 -12 47 3 53 9 4 8 8 -3 16 -20 14 -27 14 -32 -1z"/>
<path d="M1131 1316 c-21 -25 -5 -70 29 -79 30 -8 35 12 6 23 -35 13 -33 17 9
22 27 3 34 1 31 -9 -8 -19 41 -40 56 -25 9 9 7 12 -10 12 -17 0 -22 6 -22 25
0 19 5 25 22 25 17 0 19 3 11 11 -9 9 -19 8 -39 -6 -25 -16 -28 -16 -36 -1
-11 20 -41 21 -57 2z m44 -16 c-3 -5 -13 -10 -21 -10 -8 0 -14 5 -14 10 0 6 9
10 21 10 11 0 17 -4 14 -10z"/>
<path d="M200 1300 c0 -11 5 -20 10 -20 6 0 10 9 10 20 0 11 -4 20 -10 20 -5
0 -10 -9 -10 -20z"/>
<path d="M1408 1313 c-21 -5 -24 -23 -4 -23 8 0 16 -7 20 -15 4 -11 -2 -15
-24 -15 -17 0 -30 -4 -30 -9 0 -14 23 -19 48 -10 26 10 42 41 24 47 -7 2 -10
8 -7 12 7 12 -6 17 -27 13z"/>
<path d="M2380 1241 c0 -12 5 -21 10 -21 6 0 10 6 10 14 0 8 -4 18 -10 21 -5
3 -10 -3 -10 -14z"/>
<path d="M207 1223 c-2 -4 -1 -17 3 -28 7 -19 8 -19 15 -2 8 18 -9 46 -18 30z"/>
<path d="M583 1153 c-18 -6 -16 -48 2 -66 8 -8 12 -17 9 -20 -8 -8 49 -116 64
-122 8 -3 21 0 28 6 10 8 11 15 1 32 -7 12 -16 25 -20 28 -5 3 -8 9 -8 13 1 3
-7 25 -16 48 -10 24 -17 46 -16 49 4 12 -32 37 -44 32z"/>
<path d="M2362 1143 c4 -20 22 -21 26 -2 2 9 -4 16 -13 16 -9 0 -15 -7 -13
-14z"/>
<path d="M220 1105 c0 -8 5 -15 10 -15 6 0 10 7 10 15 0 8 -4 15 -10 15 -5 0
-10 -7 -10 -15z"/>
<path d="M2340 1045 c0 -8 4 -15 9 -15 5 0 11 7 15 15 3 9 0 15 -9 15 -8 0
-15 -7 -15 -15z"/>
<path d="M242 1019 c2 -7 10 -15 17 -17 8 -3 12 1 9 9 -2 7 -10 15 -17 17 -8
3 -12 -1 -9 -9z"/>
<path d="M2310 950 c0 -13 5 -18 15 -14 8 4 15 12 15 20 0 8 -7 14 -15 14 -8
0 -15 -9 -15 -20z"/>
<path d="M276 942 c-3 -5 1 -18 9 -28 14 -18 14 -18 15 3 0 23 -15 39 -24 25z"/>
<path d="M2066 869 c-14 -17 -26 -34 -26 -38 0 -4 -19 -28 -43 -52 -79 -83
-97 -119 -61 -126 23 -4 174 186 174 218 0 31 -17 30 -44 -2z"/>
<path d="M2275 869 c-4 -11 -4 -23 -2 -26 9 -8 27 7 27 22 0 23 -18 27 -25 4z"/>
<path d="M312 838 c6 -18 28 -21 28 -4 0 9 -7 16 -16 16 -9 0 -14 -5 -12 -12z"/>
<path d="M2227 780 c-3 -11 -2 -20 3 -20 12 0 31 26 23 33 -11 12 -21 7 -26
-13z"/>
<path d="M362 758 c3 -7 12 -14 21 -16 12 -2 15 1 11 12 -7 19 -38 22 -32 4z"/>
<path d="M590 731 c0 -22 123 -139 175 -166 20 -11 40 -15 51 -11 17 7 16 10
-12 34 -17 15 -46 38 -64 52 -19 14 -54 44 -78 68 -47 45 -72 53 -72 23z"/>
<path d="M2177 699 c-6 -22 6 -25 22 -5 9 10 8 15 -3 19 -8 3 -16 -2 -19 -14z"/>
<path d="M420 677 c0 -19 16 -31 24 -18 3 5 -1 14 -9 21 -12 10 -15 10 -15 -3z"/>
<path d="M2123 633 c-16 -6 -17 -33 -3 -33 11 0 26 28 19 34 -2 2 -10 1 -16
-1z"/>
<path d="M482 598 c6 -18 28 -21 28 -4 0 9 -7 16 -16 16 -9 0 -14 -5 -12 -12z"/>
<path d="M2050 560 c-11 -7 -12 -12 -4 -20 8 -8 14 -7 23 4 14 17 1 28 -19 16z"/>
<path d="M545 540 c-3 -5 1 -13 10 -16 22 -9 29 1 11 15 -10 8 -16 9 -21 1z"/>
<path d="M1690 536 c-14 -8 -61 -26 -105 -41 -91 -32 -100 -38 -92 -58 5 -12
13 -13 44 -6 21 5 45 11 54 13 26 7 122 48 147 64 50 32 7 57 -48 28z"/>
<path d="M1977 495 c-13 -9 -15 -15 -7 -20 7 -4 19 -1 27 8 19 19 3 29 -20 12z"/>
<path d="M620 483 c1 -19 16 -32 29 -24 11 7 9 11 -8 20 -11 7 -21 8 -21 4z"/>
<path d="M1005 476 c-18 -13 -16 -15 22 -34 22 -12 43 -18 47 -15 3 3 11 1 18
-4 7 -6 21 -9 31 -8 9 2 17 0 17 -4 0 -4 19 -7 43 -6 23 1 47 -1 52 -5 15 -11
55 7 55 24 0 17 -26 27 -66 25 -26 -1 -180 28 -195 37 -3 2 -14 -3 -24 -10z"/>
<path d="M1897 436 c-3 -8 -3 -17 0 -20 9 -9 34 15 27 25 -8 13 -21 11 -27 -5z"/>
<path d="M707 424 c-9 -10 2 -24 18 -24 9 0 12 6 9 15 -6 16 -17 19 -27 9z"/>
<path d="M1823 393 c-15 -5 -18 -33 -4 -33 8 0 25 30 19 35 -2 1 -9 0 -15 -2z"/>
<path d="M787 383 c-10 -16 11 -39 23 -27 8 8 7 14 -4 23 -8 7 -17 8 -19 4z"/>
<path d="M876 341 c-7 -10 22 -37 30 -28 4 3 -1 13 -9 22 -9 8 -18 11 -21 6z"/>
<path d="M1716 335 c-6 -16 3 -19 28 -9 22 8 20 24 -3 24 -10 0 -21 -7 -25
-15z"/>
<path d="M1643 313 c-17 -6 -16 -23 1 -23 8 0 16 7 20 15 6 15 1 17 -21 8z"/>
<path d="M960 300 c0 -13 28 -25 38 -16 3 4 0 11 -8 16 -20 13 -30 12 -30 0z"/>
<path d="M1540 274 c0 -17 22 -14 28 4 2 7 -3 12 -12 12 -9 0 -16 -7 -16 -16z"/>
<path d="M1055 270 c3 -5 13 -10 21 -10 8 0 14 5 14 10 0 6 -9 10 -21 10 -11
0 -17 -4 -14 -10z"/>
<path d="M1153 255 c0 -8 9 -15 20 -15 10 0 17 5 15 13 -7 18 -35 20 -35 2z"/>
<path d="M1440 260 c0 -5 9 -10 20 -10 11 0 20 5 20 10 0 6 -9 10 -20 10 -11
0 -20 -4 -20 -10z"/>
<path d="M1250 250 c0 -5 9 -10 21 -10 11 0 17 5 14 10 -3 6 -13 10 -21 10 -8
0 -14 -4 -14 -10z"/>
<path d="M1340 250 c0 -5 9 -10 20 -10 11 0 20 5 20 10 0 6 -9 10 -20 10 -11
0 -20 -4 -20 -10z"/>
<path d="M349 2227 c-76 -75 -228 -302 -219 -326 1 -2 -3 -7 -10 -11 -6 -4
-12 -13 -13 -21 -2 -8 -6 -20 -10 -26 -5 -7 -10 -21 -12 -30 -2 -10 -12 -38
-21 -63 -72 -196 -84 -506 -28 -727 18 -74 73 -221 93 -252 8 -13 16 -30 17
-36 6 -40 224 -328 259 -341 7 -3 32 -24 56 -47 55 -53 167 -126 256 -169 37
-18 71 -37 75 -43 4 -5 8 -7 8 -3 0 3 28 -5 63 -18 207 -83 538 -97 770 -33
89 25 227 78 248 96 8 7 20 13 26 13 23 0 223 144 288 207 89 87 173 191 216
268 18 33 37 62 41 63 5 2 6 8 2 13 -3 5 -1 9 4 9 9 0 18 20 20 44 0 5 4 12 9
15 13 9 60 144 83 241 11 47 23 131 27 188 6 100 6 102 -15 102 -20 0 -22 -5
-23 -62 0 -65 -24 -218 -39 -258 -1 -3 -2 -9 -1 -13 1 -4 -4 -18 -11 -30 -7
-12 -13 -26 -14 -32 0 -5 -2 -13 -4 -17 -1 -5 -4 -12 -5 -18 -1 -5 -4 -12 -5
-15 -1 -3 -3 -8 -4 -12 -1 -5 -7 -18 -14 -30 -7 -13 -10 -23 -7 -23 4 0 -1 -7
-9 -16 -9 -8 -14 -20 -11 -25 4 -5 2 -9 -3 -9 -5 0 -15 -15 -23 -32 -7 -18
-23 -47 -36 -64 -13 -17 -23 -36 -23 -42 0 -7 -4 -12 -10 -12 -5 0 -10 -7 -10
-15 0 -8 -4 -15 -10 -15 -5 0 -10 -5 -10 -11 0 -13 -15 -30 -117 -135 -40 -41
-76 -74 -81 -74 -4 0 -13 -9 -20 -21 -7 -12 -16 -19 -18 -16 -3 3 -17 -6 -32
-20 -14 -13 -41 -31 -59 -40 -18 -8 -33 -19 -33 -24 0 -5 -4 -9 -9 -9 -4 0
-53 -21 -107 -47 -55 -26 -105 -48 -112 -49 -8 -1 -21 -6 -30 -10 -15 -6 -27
-10 -57 -17 -5 -1 -14 -5 -20 -8 -5 -4 -18 -5 -27 -4 -10 2 -18 0 -18 -5 0 -4
-12 -8 -27 -8 -16 0 -48 -3 -73 -8 -51 -8 -295 -8 -355 0 -22 4 -50 7 -62 8
-13 1 -23 5 -23 8 0 5 -27 10 -67 13 -7 0 -13 5 -13 10 0 5 -6 7 -14 4 -7 -3
-18 -1 -22 3 -5 5 -18 11 -29 13 -20 4 -31 8 -120 47 -57 24 -168 90 -173 102
-2 4 -10 8 -17 8 -8 0 -19 8 -24 18 -6 9 -11 13 -11 8 0 -5 -12 4 -27 20 -15
16 -28 28 -30 27 -1 -1 -37 31 -79 72 -43 41 -74 75 -71 75 4 0 -6 13 -21 29
-42 44 -83 109 -128 204 -15 31 -31 57 -35 57 -5 0 -8 3 -7 8 1 4 -3 17 -10
29 -7 13 -10 23 -6 23 3 0 1 7 -6 15 -7 8 -10 15 -7 15 3 0 -1 17 -9 37 -9 20
-18 45 -20 55 -2 10 -6 28 -9 41 -7 28 -15 72 -23 117 -10 68 -11 306 -1 360
6 30 12 64 14 75 2 11 6 30 9 43 3 12 8 31 10 41 3 11 10 30 17 43 7 13 12 24
11 26 -1 1 -2 3 -1 5 0 1 2 9 4 17 1 8 11 33 20 55 10 22 19 42 20 45 0 3 14
30 29 60 40 76 97 160 167 240 47 55 56 70 45 79 -11 9 -21 4 -47 -22z"/>
</g>
</svg>
